<svg width="32" height="32" viewBox="0 0 32 32" fill="none" xmlns="http://www.w3.org/2000/svg">
<g clip-path="url(#clip0_2115_1302)">
<path d="M24 5H2.66667C1.2 5 0.0133333 6.2 0.0133333 7.66667L0 23.6667C0 25.1333 1.2 26.3333 2.66667 26.3333H24C25.4667 26.3333 26.6667 25.1333 26.6667 23.6667V7.66667C26.6667 6.2 25.4667 5 24 5ZM23.4667 10.6667L14.04 16.56C13.6133 16.8267 13.0533 16.8267 12.6267 16.56L3.2 10.6667C2.86667 10.4533 2.66667 10.0933 2.66667 9.70667C2.66667 8.81333 3.64 8.28 4.4 8.74667L13.3333 14.3333L22.2667 8.74667C23.0267 8.28 24 8.81333 24 9.70667C24 10.0933 23.8 10.4533 23.4667 10.6667Z" fill="white"/>
</g>
<defs>
<clipPath id="clip0_2115_1302">
<rect width="32" height="32" fill="white"/>
</clipPath>
</defs>
</svg>
