<svg width="28" height="27" viewBox="0 0 28 27" fill="none" xmlns="http://www.w3.org/2000/svg">
<path fill-rule="evenodd" clip-rule="evenodd" d="M9.96455 9.54134C10.9549 8.59306 12.2981 8.06033 13.6987 8.06033C15.0992 8.06033 16.4424 8.59306 17.4328 9.54134C18.4231 10.4896 18.9795 11.7757 18.9795 13.1168C18.9795 14.4579 18.4231 15.744 17.4328 16.6923C16.4424 17.6406 15.0992 18.1733 13.6987 18.1733C12.2981 18.1733 10.9549 17.6406 9.96455 16.6923C8.9742 15.744 8.41783 14.4579 8.41783 13.1168C8.41783 11.7757 8.9742 10.4896 9.96455 9.54134ZM12.3868 16.1494C12.8027 16.3144 13.2485 16.3993 13.6987 16.3993C14.6078 16.3993 15.4798 16.0534 16.1227 15.4379C16.7656 14.8223 17.1267 13.9874 17.1267 13.1168C17.1267 12.2463 16.7656 11.4113 16.1227 10.7958C15.4798 10.1802 14.6078 9.83436 13.6987 9.83436C13.2485 9.83436 12.8027 9.91926 12.3868 10.0842C11.9709 10.2492 11.593 10.491 11.2746 10.7958C10.9563 11.1006 10.7038 11.4624 10.5315 11.8607C10.3592 12.2589 10.2706 12.6858 10.2706 13.1168C10.2706 13.5479 10.3592 13.9747 10.5315 14.3729C10.7038 14.7712 10.9563 15.133 11.2746 15.4379C11.593 15.7427 11.9709 15.9844 12.3868 16.1494Z" fill="white"/>
<path d="M20.1502 8.81369C20.3843 8.58953 20.5158 8.28552 20.5158 7.96851C20.5158 7.65151 20.3843 7.34749 20.1502 7.12334C19.9161 6.89918 19.5986 6.77326 19.2675 6.77326C18.9364 6.77326 18.6189 6.89918 18.3848 7.12334C18.1507 7.34749 18.0192 7.65151 18.0192 7.96851C18.0192 8.28552 18.1507 8.58953 18.3848 8.81369C18.6189 9.03784 18.9364 9.16377 19.2675 9.16377C19.5986 9.16377 19.9161 9.03784 20.1502 8.81369Z" fill="white"/>
<path fill-rule="evenodd" clip-rule="evenodd" d="M9.46304 3.33832C10.5589 3.29045 10.9082 3.2793 13.6987 3.2793C16.4898 3.2793 16.8384 3.2911 17.9336 3.33832C19.0274 3.3862 19.7754 3.55344 20.4288 3.79544C21.1141 4.04259 21.7349 4.42978 22.248 4.93003C22.7706 5.42146 23.175 6.01613 23.4329 6.67258C23.687 7.29825 23.861 8.01376 23.911 9.06113C23.961 10.1105 23.9726 10.4449 23.9726 13.1168C23.9726 15.7887 23.961 16.1232 23.911 17.1725C23.861 18.2199 23.687 18.9354 23.4336 19.561C23.1755 20.2172 22.7711 20.8116 22.2487 21.3029C21.735 21.804 21.1137 22.1909 20.4288 22.4375C19.7754 22.6808 19.0281 22.8474 17.9343 22.8953C16.8384 22.9432 16.4891 22.9543 13.6987 22.9543C10.9082 22.9543 10.5589 22.9432 9.46304 22.8953C8.3692 22.8474 7.62194 22.6808 6.96852 22.4382C6.28325 22.191 5.66246 21.8038 5.14934 21.3036C4.62605 20.8117 4.22194 20.2169 3.96441 19.561C3.7103 18.9354 3.53633 18.2199 3.48633 17.1725C3.43633 16.1232 3.42468 15.7893 3.42468 13.1168C3.42468 10.4443 3.43701 10.1105 3.48633 9.06179C3.53633 8.01442 3.71098 7.29825 3.96372 6.67258C4.22185 6.01642 4.6262 5.42199 5.14866 4.93069C5.66235 4.42963 6.28359 4.04269 6.96852 3.79609C7.62194 3.55278 8.3692 3.3862 9.46304 3.33832ZM17.8507 5.10907C16.7671 5.06185 16.4418 5.05202 13.6987 5.05202C10.9555 5.05202 10.6302 5.06185 9.5466 5.10907C8.54523 5.15301 8.00139 5.31304 7.63907 5.44814C7.19277 5.60552 6.78903 5.85675 6.45756 6.18333C6.09866 6.52764 5.87537 6.85556 5.68975 7.31464C5.54797 7.66158 5.38153 8.18231 5.33564 9.14114C5.28633 10.1787 5.27605 10.4902 5.27605 13.1168C5.27605 15.7434 5.28633 16.0549 5.33564 17.0925C5.38153 18.0513 5.54866 18.572 5.68975 18.919C5.85422 19.3463 6.11658 19.7328 6.45756 20.0503C6.78907 20.3768 7.1928 20.628 7.63907 20.7855C8.00139 20.9212 8.54523 21.0806 9.5466 21.1245C10.6302 21.1718 10.9548 21.1816 13.6987 21.1816C16.4425 21.1816 16.7671 21.1718 17.8507 21.1245C18.8521 21.0806 19.3959 20.9206 19.7582 20.7855C20.2046 20.6281 20.6083 20.3769 20.9398 20.0503C21.2808 19.7329 21.5431 19.3463 21.7076 18.919C21.8493 18.572 22.0158 18.0513 22.0617 17.0925C22.111 16.0549 22.1213 15.7434 22.1213 13.1168C22.1213 10.4902 22.111 10.1787 22.0617 9.14114C22.0158 8.18231 21.8487 7.66158 21.7076 7.31464C21.5219 6.85556 21.2993 6.52764 20.9398 6.18333C20.5802 5.83967 20.2377 5.62587 19.7582 5.44814C19.3959 5.31238 18.8521 5.15301 17.8507 5.10907Z" fill="white"/>
</svg>
