<svg width="28" height="27" viewBox="0 0 28 27" fill="none" xmlns="http://www.w3.org/2000/svg">
<path d="M5.50989 11.3532C7.70167 15.4777 11.2329 18.8443 15.5403 20.9575L18.8889 17.7512C19.2998 17.3577 19.9087 17.2266 20.4414 17.4015C22.1461 17.9407 23.9878 18.2322 25.8752 18.2322C26.7123 18.2322 27.3973 18.888 27.3973 19.6896V24.776C27.3973 25.5775 26.7123 26.2334 25.8752 26.2334C11.583 26.2334 0 15.1425 0 1.45741C0 0.655834 0.684932 0 1.52207 0H6.84932C7.68645 0 8.37139 0.655834 8.37139 1.45741C8.37139 3.27917 8.6758 5.02806 9.23897 6.66036C9.40639 7.17045 9.28463 7.73884 8.85845 8.14692L5.50989 11.3532Z" fill="#FFF8EE"/>
</svg>
