<svg width="28" height="27" viewBox="0 0 28 27" fill="none" xmlns="http://www.w3.org/2000/svg">
<path fill-rule="evenodd" clip-rule="evenodd" d="M16.8269 0.57876C19.411 -0.710705 22.6104 0.22864 23.9705 2.67734C25.3305 5.12605 24.3384 8.15544 21.7543 9.4449L19.6295 10.5145C21.46 10.5785 23.2057 11.5414 24.1199 13.1873C25.4799 15.636 24.49 18.6654 21.9037 19.9549L10.5729 25.655C7.98877 26.9445 4.7893 26.0051 3.42925 23.5564C2.0692 21.1077 3.06137 18.0783 5.64547 16.7889L7.77027 15.7193C5.93977 15.6553 4.194 14.6924 3.27987 13.0464C1.91981 10.5977 2.91198 7.56835 5.49608 6.27888L16.8269 0.57876ZM10.7111 9.07984L17.5693 13.134L10.7111 17.1689V9.07984Z" fill="white"/>
</svg>
