<svg width="747" height="240" viewBox="0 0 747 240" fill="none" xmlns="http://www.w3.org/2000/svg">
<rect width="747" height="213" rx="20" fill="#7B79DA"/>
<path d="M40.4432 75.7996C22.4121 42.4851 46.5345 2 84.4157 2H296.777C308.49 2 319.831 6.11199 328.822 13.6187L394.697 68.6186C418.638 88.6065 418.638 125.393 394.698 145.381L328.822 200.381C319.831 207.888 308.49 212 296.777 212H81.0949C44.0001 212 19.8214 173.026 36.2978 139.792L43.3272 125.612C50.5449 111.054 50.2373 93.8953 42.5025 79.6044L40.4432 75.7996Z" fill="#5958A6"/>
<path d="M132.508 52.728L125.92 78H118.468L114.436 61.368L110.26 78H102.808L96.4 52.728H102.988L106.624 71.124L111.124 52.728H117.892L122.212 71.124L125.884 52.728H132.508ZM154.531 67.632C154.531 68.208 154.495 68.808 154.423 69.432H140.491C140.587 70.68 140.983 71.64 141.679 72.312C142.399 72.96 143.275 73.284 144.307 73.284C145.843 73.284 146.911 72.636 147.511 71.34H154.063C153.727 72.66 153.115 73.848 152.227 74.904C151.363 75.96 150.271 76.788 148.951 77.388C147.631 77.988 146.155 78.288 144.523 78.288C142.555 78.288 140.803 77.868 139.267 77.028C137.731 76.188 136.531 74.988 135.667 73.428C134.803 71.868 134.371 70.044 134.371 67.956C134.371 65.868 134.791 64.044 135.631 62.484C136.495 60.924 137.695 59.724 139.231 58.884C140.767 58.044 142.531 57.624 144.523 57.624C146.467 57.624 148.195 58.032 149.707 58.848C151.219 59.664 152.395 60.828 153.235 62.34C154.099 63.852 154.531 65.616 154.531 67.632ZM148.231 66.012C148.231 64.956 147.871 64.116 147.151 63.492C146.431 62.868 145.531 62.556 144.451 62.556C143.419 62.556 142.543 62.856 141.823 63.456C141.127 64.056 140.695 64.908 140.527 66.012H148.231ZM163.935 51.36V78H157.779V51.36H163.935ZM167.172 67.956C167.172 65.868 167.592 64.044 168.432 62.484C169.296 60.924 170.484 59.724 171.996 58.884C173.532 58.044 175.284 57.624 177.252 57.624C179.772 57.624 181.872 58.284 183.552 59.604C185.256 60.924 186.372 62.784 186.9 65.184H180.348C179.796 63.648 178.728 62.88 177.144 62.88C176.016 62.88 175.116 63.324 174.444 64.212C173.772 65.076 173.436 66.324 173.436 67.956C173.436 69.588 173.772 70.848 174.444 71.736C175.116 72.6 176.016 73.032 177.144 73.032C178.728 73.032 179.796 72.264 180.348 70.728H186.9C186.372 73.08 185.256 74.928 183.552 76.272C181.848 77.616 179.748 78.288 177.252 78.288C175.284 78.288 173.532 77.868 171.996 77.028C170.484 76.188 169.296 74.988 168.432 73.428C167.592 71.868 167.172 70.044 167.172 67.956ZM199.337 78.288C197.369 78.288 195.593 77.868 194.009 77.028C192.449 76.188 191.213 74.988 190.301 73.428C189.413 71.868 188.969 70.044 188.969 67.956C188.969 65.892 189.425 64.08 190.337 62.52C191.249 60.936 192.497 59.724 194.081 58.884C195.665 58.044 197.441 57.624 199.409 57.624C201.377 57.624 203.153 58.044 204.737 58.884C206.321 59.724 207.569 60.936 208.481 62.52C209.393 64.08 209.849 65.892 209.849 67.956C209.849 70.02 209.381 71.844 208.445 73.428C207.533 74.988 206.273 76.188 204.665 77.028C203.081 77.868 201.305 78.288 199.337 78.288ZM199.337 72.96C200.513 72.96 201.509 72.528 202.325 71.664C203.165 70.8 203.585 69.564 203.585 67.956C203.585 66.348 203.177 65.112 202.361 64.248C201.569 63.384 200.585 62.952 199.409 62.952C198.209 62.952 197.213 63.384 196.421 64.248C195.629 65.088 195.233 66.324 195.233 67.956C195.233 69.564 195.617 70.8 196.385 71.664C197.177 72.528 198.161 72.96 199.337 72.96ZM238.747 57.696C241.243 57.696 243.223 58.452 244.687 59.964C246.175 61.476 246.919 63.576 246.919 66.264V78H240.799V67.092C240.799 65.796 240.451 64.8 239.755 64.104C239.083 63.384 238.147 63.024 236.947 63.024C235.747 63.024 234.799 63.384 234.103 64.104C233.431 64.8 233.095 65.796 233.095 67.092V78H226.975V67.092C226.975 65.796 226.627 64.8 225.931 64.104C225.259 63.384 224.323 63.024 223.123 63.024C221.923 63.024 220.975 63.384 220.279 64.104C219.607 64.8 219.271 65.796 219.271 67.092V78H213.115V57.912H219.271V60.432C219.895 59.592 220.711 58.932 221.719 58.452C222.727 57.948 223.867 57.696 225.139 57.696C226.651 57.696 227.995 58.02 229.171 58.668C230.371 59.316 231.307 60.24 231.979 61.44C232.675 60.336 233.623 59.436 234.823 58.74C236.023 58.044 237.331 57.696 238.747 57.696ZM270.16 67.632C270.16 68.208 270.124 68.808 270.052 69.432H256.12C256.216 70.68 256.612 71.64 257.308 72.312C258.028 72.96 258.904 73.284 259.936 73.284C261.472 73.284 262.54 72.636 263.14 71.34H269.692C269.356 72.66 268.744 73.848 267.856 74.904C266.992 75.96 265.9 76.788 264.58 77.388C263.26 77.988 261.784 78.288 260.152 78.288C258.184 78.288 256.432 77.868 254.896 77.028C253.36 76.188 252.16 74.988 251.296 73.428C250.432 71.868 250 70.044 250 67.956C250 65.868 250.42 64.044 251.26 62.484C252.124 60.924 253.324 59.724 254.86 58.884C256.396 58.044 258.16 57.624 260.152 57.624C262.096 57.624 263.824 58.032 265.336 58.848C266.848 59.664 268.024 60.828 268.864 62.34C269.728 63.852 270.16 65.616 270.16 67.632ZM263.86 66.012C263.86 64.956 263.5 64.116 262.78 63.492C262.06 62.868 261.16 62.556 260.08 62.556C259.048 62.556 258.172 62.856 257.452 63.456C256.756 64.056 256.324 64.908 256.156 66.012H263.86ZM103.888 96.756C104.464 95.82 105.292 95.064 106.372 94.488C107.452 93.912 108.688 93.624 110.08 93.624C111.736 93.624 113.236 94.044 114.58 94.884C115.924 95.724 116.98 96.924 117.748 98.484C118.54 100.044 118.936 101.856 118.936 103.92C118.936 105.984 118.54 107.808 117.748 109.392C116.98 110.952 115.924 112.164 114.58 113.028C113.236 113.868 111.736 114.288 110.08 114.288C108.664 114.288 107.428 114.012 106.372 113.46C105.316 112.884 104.488 112.128 103.888 111.192V114H97.732V87.36H103.888V96.756ZM112.672 103.92C112.672 102.384 112.24 101.184 111.376 100.32C110.536 99.432 109.492 98.988 108.244 98.988C107.02 98.988 105.976 99.432 105.112 100.32C104.272 101.208 103.852 102.42 103.852 103.956C103.852 105.492 104.272 106.704 105.112 107.592C105.976 108.48 107.02 108.924 108.244 108.924C109.468 108.924 110.512 108.48 111.376 107.592C112.24 106.68 112.672 105.456 112.672 103.92ZM120.942 103.92C120.942 101.856 121.326 100.044 122.094 98.484C122.886 96.924 123.954 95.724 125.298 94.884C126.642 94.044 128.142 93.624 129.798 93.624C131.214 93.624 132.45 93.912 133.506 94.488C134.586 95.064 135.414 95.82 135.99 96.756V93.912H142.146V114H135.99V111.156C135.39 112.092 134.55 112.848 133.47 113.424C132.414 114 131.178 114.288 129.762 114.288C128.13 114.288 126.642 113.868 125.298 113.028C123.954 112.164 122.886 110.952 122.094 109.392C121.326 107.808 120.942 105.984 120.942 103.92ZM135.99 103.956C135.99 102.42 135.558 101.208 134.694 100.32C133.854 99.432 132.822 98.988 131.598 98.988C130.374 98.988 129.33 99.432 128.466 100.32C127.626 101.184 127.206 102.384 127.206 103.92C127.206 105.456 127.626 106.68 128.466 107.592C129.33 108.48 130.374 108.924 131.598 108.924C132.822 108.924 133.854 108.48 134.694 107.592C135.558 106.704 135.99 105.492 135.99 103.956ZM145.375 103.956C145.375 101.868 145.795 100.044 146.635 98.484C147.499 96.924 148.687 95.724 150.199 94.884C151.735 94.044 153.487 93.624 155.455 93.624C157.975 93.624 160.075 94.284 161.755 95.604C163.459 96.924 164.575 98.784 165.103 101.184H158.551C157.999 99.648 156.931 98.88 155.347 98.88C154.219 98.88 153.319 99.324 152.647 100.212C151.975 101.076 151.639 102.324 151.639 103.956C151.639 105.588 151.975 106.848 152.647 107.736C153.319 108.6 154.219 109.032 155.347 109.032C156.931 109.032 157.999 108.264 158.551 106.728H165.103C164.575 109.08 163.459 110.928 161.755 112.272C160.051 113.616 157.951 114.288 155.455 114.288C153.487 114.288 151.735 113.868 150.199 113.028C148.687 112.188 147.499 110.988 146.635 109.428C145.795 107.868 145.375 106.044 145.375 103.956ZM180.672 114L174.552 105.576V114H168.396V87.36H174.552V102.084L180.636 93.912H188.232L179.88 103.992L188.304 114H180.672ZM198.75 87.828L198.03 105.072H192.81L192.09 87.828H198.75ZM195.51 114.288C194.43 114.288 193.542 113.976 192.846 113.352C192.174 112.704 191.838 111.912 191.838 110.976C191.838 110.016 192.174 109.212 192.846 108.564C193.542 107.916 194.43 107.592 195.51 107.592C196.566 107.592 197.43 107.916 198.102 108.564C198.798 109.212 199.146 110.016 199.146 110.976C199.146 111.912 198.798 112.704 198.102 113.352C197.43 113.976 196.566 114.288 195.51 114.288Z" fill="white"/>
<g clip-path="url(#clip0_2197_52)">
<path d="M554.184 65.2311V51.8682H551.992V65.2311C551.363 65.4722 550.842 65.9131 550.519 66.4783C550.195 67.0434 550.089 67.6975 550.219 68.3286C550.348 68.9597 550.706 69.5285 551.229 69.9374C551.753 70.3463 552.41 70.5699 553.088 70.5699C553.767 70.5699 554.424 70.3463 554.947 69.9374C555.471 69.5285 555.828 68.9597 555.958 68.3286C556.087 67.6975 555.981 67.0434 555.658 66.4783C555.334 65.9131 554.813 65.4722 554.184 65.2311Z" fill="#E6E6E6"/>
<path d="M559.3 200.088H544.319V27.627H538.472V200.088H523.491C521.716 200.088 519.958 200.42 518.318 201.064C516.677 201.708 515.187 202.651 513.931 203.841C512.676 205.031 511.68 206.444 511.001 207.998C510.321 209.553 509.972 211.219 509.972 212.902V212.902H572.82V212.902C572.82 211.219 572.47 209.553 571.79 207.998C571.111 206.444 570.115 205.031 568.86 203.841C567.604 202.651 566.114 201.707 564.474 201.064C562.833 200.42 561.075 200.088 559.3 200.088Z" fill="#E6E6E6"/>
<path d="M510.002 53.2535H572.789L568.95 7.76937C568.809 6.20098 568.055 4.73915 566.835 3.67146C565.614 2.60376 564.017 2.00751 562.356 2H520.435C518.775 2.00751 517.177 2.60376 515.957 3.67146C514.736 4.73915 513.982 6.20098 513.841 7.76937L510.002 53.2535Z" fill="#FFAC1C"/>
<path d="M332.144 160.448H523.786V141.905C523.786 91.8292 480.801 51.0894 427.965 51.0894C375.13 51.0894 332.144 91.8292 332.144 141.905V160.448Z" fill="#3F3D56"/>
<path opacity="0.2" d="M332.144 160.448H523.786V141.905C523.786 91.8292 480.801 51.0894 427.965 51.0894C375.13 51.0894 332.144 91.8292 332.144 141.905V160.448Z" fill="black"/>
<path d="M356.982 166.867H504.467C504.327 159.513 501.148 152.505 495.614 147.348C490.081 142.191 482.633 139.298 474.872 139.29H386.577C378.816 139.298 371.368 142.191 365.835 147.348C360.301 152.505 357.122 159.513 356.982 166.867Z" fill="#FFAC1C"/>
<path d="M339.419 164.014C355.766 164.014 369.018 151.454 369.018 135.961C369.018 120.468 355.766 107.908 339.419 107.908C323.072 107.908 309.82 120.468 309.82 135.961C309.82 151.454 323.072 164.014 339.419 164.014Z" fill="#3F3D56"/>
<path d="M519.02 164.014C535.367 164.014 548.619 151.454 548.619 135.961C548.619 120.468 535.367 107.908 519.02 107.908C502.673 107.908 489.421 120.468 489.421 135.961C489.421 151.454 502.673 164.014 519.02 164.014Z" fill="#3F3D56"/>
<path d="M496.695 150.226V160.686H359.988V150.226H329.385V201.21C329.385 204.334 330.694 207.33 333.025 209.538C335.356 211.747 338.517 212.988 341.813 212.988H514.87C516.502 212.988 518.118 212.683 519.626 212.092C521.134 211.5 522.504 210.632 523.658 209.538C524.812 208.445 525.727 207.146 526.352 205.717C526.976 204.288 527.298 202.757 527.298 201.21V150.226H496.695Z" fill="#3F3D56"/>
<path opacity="0.2" d="M339.419 141.667C342.744 141.667 345.439 139.112 345.439 135.961C345.439 132.81 342.744 130.255 339.419 130.255C336.094 130.255 333.399 132.81 333.399 135.961C333.399 139.112 336.094 141.667 339.419 141.667Z" fill="black"/>
<path opacity="0.2" d="M519.02 141.667C522.345 141.667 525.04 139.112 525.04 135.961C525.04 132.81 522.345 130.255 519.02 130.255C515.695 130.255 513 132.81 513 135.961C513 139.112 515.695 141.667 519.02 141.667Z" fill="black"/>
<path d="M438.869 47.8846C438.869 47.8846 439.461 58.5421 443.604 60.7858C447.746 63.0294 443.604 78.1743 443.604 78.1743L424.073 78.7352L422.889 60.7858C422.889 60.7858 425.257 53.4938 424.073 50.1283C422.889 46.7627 438.869 47.8846 438.869 47.8846Z" fill="#FFB8B8"/>
<path d="M460.767 195.968L453.665 203.821L464.91 213.917L470.828 202.699L460.767 195.968Z" fill="#FFB8B8"/>
<path d="M410.461 195.968L417.563 203.821L406.318 213.917L400.399 202.699L410.461 195.968Z" fill="#FFB8B8"/>
<path d="M456.92 121.646C456.92 121.646 499.532 135.108 497.165 148.009C494.798 160.91 476.451 206.345 476.451 206.345C476.451 206.345 466.389 206.345 458.695 196.248L464.022 185.03C464.022 185.03 461.655 178.86 465.798 177.738C469.94 176.616 472.308 156.984 472.308 156.984C472.308 156.984 442.124 154.74 435.614 144.082L423.777 117.158L456.92 121.646Z" fill="#2F2E41"/>
<path d="M414.308 121.646C414.308 121.646 371.695 135.108 374.063 148.009C376.43 160.91 394.777 206.345 394.777 206.345C394.777 206.345 404.838 206.345 412.532 196.248L407.206 185.03C407.206 185.03 409.573 178.86 405.43 177.738C401.287 176.616 398.92 156.984 398.92 156.984C398.92 156.984 429.104 154.74 435.614 144.082L447.451 117.158L414.308 121.646Z" fill="#2F2E41"/>
<path d="M462.838 209.71C462.838 209.71 468.757 204.662 469.349 208.589C469.94 212.515 468.757 228.221 468.757 228.221C468.757 228.221 474.675 240 465.797 240C456.92 240 452.777 231.025 453.961 222.051C455.144 213.076 449.818 209.71 449.818 209.71C449.818 209.71 443.308 197.37 449.818 196.248C456.328 195.126 458.695 197.931 458.695 197.931C458.695 197.931 456.328 208.028 462.838 209.71Z" fill="#2F2E41"/>
<path d="M408.389 209.71C408.389 209.71 402.471 204.662 401.879 208.589C401.287 212.515 402.471 228.221 402.471 228.221C402.471 228.221 396.553 240 405.43 240C414.308 240 418.451 231.025 417.267 222.051C416.083 213.076 421.41 209.71 421.41 209.71C421.41 209.71 427.92 197.37 421.41 196.248C414.9 195.126 412.532 197.931 412.532 197.931C412.532 197.931 414.9 208.028 408.389 209.71Z" fill="#2F2E41"/>
<path d="M429.695 54.3351C437.213 54.3351 443.308 48.559 443.308 41.4339C443.308 34.3088 437.213 28.5327 429.695 28.5327C422.178 28.5327 416.083 34.3088 416.083 41.4339C416.083 48.559 422.178 54.3351 429.695 54.3351Z" fill="#FFB8B8"/>
<path d="M431.767 63.5905L423.481 57.4204L403.359 66.3951L402.767 117.439C402.767 117.439 390.338 123.048 393.889 130.34C393.889 130.34 404.542 132.584 409.277 137.071C414.012 141.559 440.644 135.388 451.889 132.023C463.134 128.657 466.093 124.731 466.093 124.731L454.849 109.586L461.359 70.8825L441.239 58.0618L431.767 63.5905Z" fill="#E6E6E6"/>
<path d="M446.245 32.6532C445.948 32.2718 445.677 31.8731 445.433 31.4595C445.011 30.4853 445.678 29.3371 445.055 28.4274C444.419 27.4986 442.804 27.3028 441.706 26.6719C440.014 25.6999 439.706 23.7927 438.121 22.7217C436.979 21.95 435.35 21.742 433.823 21.786C432.297 21.83 430.791 22.0916 429.264 22.1203C427.202 22.1639 425.157 21.7675 423.28 20.9604L424.406 23.049C423.154 22.7904 421.958 22.3309 420.87 21.6905C420.372 22.2762 421.283 23.1652 420.718 23.7146C420.486 23.8919 420.212 24.0123 419.92 24.0654C417.747 24.6506 415.701 25.5966 413.877 26.8595C413.455 27.114 413.105 27.4635 412.86 27.8769C412.566 28.4936 412.827 29.1748 412.805 29.8306C412.764 31.0221 411.804 32.0611 411.123 33.1345C410.442 34.2079 410.074 35.5995 411.085 36.5106C411.33 36.6956 411.566 36.8925 411.79 37.1004C412.802 38.2319 411.011 39.8889 411.874 41.0896C412.249 41.6109 413.018 41.8747 413.686 42.1827C414.965 42.7496 416.041 43.6588 416.782 44.7983L416.263 41.1869C416.236 41.0977 416.231 41.0036 416.249 40.9123C416.267 40.8209 416.307 40.7348 416.366 40.6609C416.618 40.418 417.144 40.5148 417.492 40.3539C417.873 40.177 417.902 39.771 417.887 39.4309L417.77 36.809C417.718 35.6299 417.703 35.4734 418.619 34.5217C419.259 33.8568 420.266 33.4556 421.278 33.1606C423.589 32.4864 426.075 32.2532 428.532 32.0253C431.385 31.7607 434.598 30.4485 436.814 31.8417C438.628 32.9822 439.231 34.8567 440.105 36.5193C440.891 38.0136 442.907 42.4134 444.585 40.0318C445.639 38.5361 447.252 34.3186 446.245 32.6532Z" fill="#2F2E41"/>
<path d="M432.032 37.6914C431.976 37.6915 431.922 37.7126 431.883 37.7501C431.843 37.7877 431.821 37.8386 431.821 37.8918V43.2932C431.821 43.3464 431.843 43.3973 431.883 43.4349C431.922 43.4724 431.976 43.4935 432.032 43.4936H441.843C441.899 43.4935 441.953 43.4724 441.993 43.4349C442.032 43.3973 442.055 43.3464 442.055 43.2932V37.8918C442.055 37.8386 442.032 37.7877 441.993 37.7501C441.953 37.7126 441.899 37.6915 441.843 37.6914L432.032 37.6914Z" fill="#3F3D56"/>
<path d="M433.129 38.168C433.024 38.1681 432.924 38.2075 432.85 38.2775C432.776 38.3475 432.735 38.4425 432.735 38.5415V42.6439C432.735 42.743 432.776 42.8379 432.85 42.9079C432.924 42.978 433.024 43.0173 433.129 43.0175H440.747C440.851 43.0173 440.951 42.978 441.025 42.9079C441.099 42.8379 441.141 42.743 441.141 42.6439V38.5415C441.141 38.4425 441.099 38.3475 441.025 38.2775C440.951 38.2075 440.851 38.1681 440.747 38.168H433.129Z" fill="#FF6584"/>
<path d="M432.143 39.4707H427.032V40.5925H432.143V39.4707Z" fill="#3F3D56"/>
<path d="M418.14 37.6914C418.084 37.6915 418.03 37.7126 417.99 37.7502C417.951 37.7878 417.928 37.8387 417.928 37.8918V43.2932C417.928 43.3463 417.951 43.3972 417.99 43.4348C418.03 43.4724 418.084 43.4935 418.14 43.4936H427.951C428.007 43.4935 428.06 43.4724 428.1 43.4348C428.14 43.3972 428.162 43.3463 428.162 43.2932V37.8918C428.162 37.8387 428.14 37.7877 428.1 37.7502C428.06 37.7126 428.007 37.6915 427.951 37.6914L418.14 37.6914Z" fill="#3F3D56"/>
<path d="M419.236 38.168C419.132 38.1681 419.031 38.2074 418.958 38.2775C418.884 38.3475 418.842 38.4424 418.842 38.5415V42.6439C418.842 42.743 418.884 42.8379 418.958 42.908C419.031 42.978 419.132 43.0174 419.236 43.0175H426.854C426.959 43.0174 427.059 42.978 427.133 42.908C427.207 42.8379 427.248 42.743 427.248 42.6439V38.5415C427.248 38.4424 427.207 38.3475 427.133 38.2775C427.059 38.2074 426.959 38.1681 426.854 38.168H419.236Z" fill="#FFAC1C"/>
<path d="M412.777 105.113H446.758C448.115 105.113 449.416 105.624 450.376 106.533C451.335 107.443 451.874 108.676 451.874 109.962H407.661C407.661 108.676 408.2 107.443 409.159 106.533C410.119 105.624 411.42 105.113 412.777 105.113Z" fill="#3F3D56"/>
<path d="M449.133 104.767C448.935 104.768 448.737 104.799 448.549 104.861C448.485 104.615 448.327 104.4 448.107 104.257C447.887 104.113 447.619 104.051 447.353 104.082C447.088 104.113 446.844 104.235 446.667 104.425C446.49 104.615 446.392 104.86 446.393 105.113C446.393 105.118 446.394 105.123 446.394 105.128C446.257 105.14 446.122 105.167 445.991 105.207C445.954 105.068 445.887 104.937 445.794 104.823C445.7 104.709 445.583 104.614 445.449 104.546C445.801 104.362 446.078 104.073 446.24 103.725C446.446 103.745 446.653 103.723 446.849 103.661C447.045 103.599 447.225 103.499 447.377 103.367C447.529 103.235 447.651 103.074 447.733 102.894C447.815 102.715 447.857 102.521 447.854 102.325C447.852 102.13 447.807 101.937 447.721 101.759C447.635 101.581 447.51 101.423 447.355 101.293C447.2 101.164 447.018 101.068 446.82 101.01C446.623 100.952 446.415 100.934 446.21 100.957C446.011 100.958 445.814 100.99 445.626 101.052C445.592 100.915 445.53 100.787 445.442 100.675C445.355 100.562 445.244 100.467 445.117 100.396C444.99 100.325 444.849 100.279 444.702 100.261C444.556 100.244 444.407 100.254 444.265 100.292C444.123 100.33 443.991 100.395 443.876 100.483C443.761 100.571 443.666 100.68 443.597 100.803C443.528 100.927 443.486 101.063 443.474 101.202C443.461 101.341 443.479 101.482 443.525 101.614C443.482 101.643 443.441 101.676 443.4 101.708C443.193 101.539 442.925 101.455 442.653 101.472C442.512 101.09 442.234 100.766 441.867 100.559C441.501 100.351 441.068 100.272 440.646 100.336C440.225 100.4 439.84 100.603 439.56 100.909C439.28 101.215 439.122 101.604 439.115 102.009C438.968 102.02 438.823 102.047 438.683 102.091C438.668 102.032 438.647 101.975 438.62 101.92C438.765 101.799 438.881 101.651 438.961 101.485C439.041 101.32 439.083 101.14 439.085 100.957C439.059 100.567 438.872 100.203 438.564 99.9436C438.256 99.684 437.852 99.5505 437.441 99.5721C437.242 99.5729 437.044 99.6048 436.856 99.6664C436.823 99.5302 436.76 99.4019 436.673 99.2893C436.585 99.1766 436.475 99.0819 436.347 99.0109C436.22 98.94 436.079 98.8941 435.933 98.8762C435.786 98.8583 435.638 98.8687 435.496 98.9067C435.354 98.9448 435.221 99.0097 435.106 99.0976C434.992 99.1855 434.897 99.2945 434.828 99.4181C434.758 99.5417 434.716 99.6773 434.704 99.8167C434.692 99.9561 434.709 100.096 434.756 100.229C434.526 100.381 434.336 100.58 434.2 100.813C434.065 101.045 433.988 101.304 433.975 101.569C433.959 101.582 433.942 101.593 433.927 101.606C433.954 101.508 433.969 101.406 433.97 101.304C433.944 100.914 433.757 100.549 433.449 100.29C433.141 100.03 432.737 99.8968 432.325 99.9184C432.126 99.9193 431.929 99.9511 431.741 100.013C431.707 99.8765 431.645 99.7482 431.557 99.6356C431.47 99.5229 431.359 99.4283 431.232 99.3573C431.105 99.2863 430.964 99.2404 430.817 99.2225C430.671 99.2046 430.522 99.215 430.38 99.253C430.238 99.2911 430.106 99.356 429.991 99.4439C429.876 99.5318 429.781 99.6408 429.712 99.7644C429.643 99.888 429.601 100.024 429.589 100.163C429.576 100.302 429.594 100.443 429.64 100.575C429.398 100.734 429.199 100.947 429.063 101.194C428.926 101.442 428.854 101.717 428.854 101.996C428.854 102.276 428.926 102.551 429.063 102.798C429.199 103.046 429.398 103.258 429.64 103.417C429.566 103.618 429.566 103.837 429.64 104.039C429.457 104.16 429.299 104.311 429.173 104.486C429.105 104.253 428.954 104.051 428.745 103.913C428.536 103.775 428.282 103.711 428.029 103.732C427.775 103.752 427.537 103.857 427.356 104.026C427.175 104.196 427.063 104.421 427.038 104.661C426.892 104.579 426.734 104.519 426.569 104.481C426.865 104.296 427.098 104.033 427.24 103.725C427.445 103.745 427.652 103.723 427.848 103.661C428.044 103.599 428.224 103.499 428.377 103.367C428.529 103.235 428.65 103.074 428.732 102.894C428.815 102.715 428.856 102.521 428.854 102.325C428.852 102.13 428.806 101.937 428.72 101.759C428.634 101.581 428.509 101.423 428.354 101.293C428.199 101.164 428.017 101.068 427.82 101.01C427.623 100.952 427.415 100.934 427.21 100.957C427.011 100.958 426.813 100.99 426.625 101.052C426.592 100.915 426.529 100.787 426.442 100.675C426.354 100.562 426.243 100.467 426.116 100.396C425.989 100.325 425.848 100.279 425.702 100.261C425.555 100.244 425.407 100.254 425.265 100.292C425.123 100.33 424.99 100.395 424.875 100.483C424.76 100.571 424.666 100.68 424.596 100.803C424.527 100.927 424.485 101.063 424.473 101.202C424.461 101.341 424.478 101.482 424.525 101.614C424.501 101.63 424.48 101.648 424.458 101.664C424.401 101.659 424.345 101.65 424.287 101.65C424.088 101.651 423.89 101.683 423.702 101.744C423.695 101.718 423.684 101.694 423.675 101.669C423.71 101.514 423.708 101.355 423.667 101.202C423.626 101.049 423.548 100.907 423.44 100.787C423.331 100.667 423.195 100.573 423.042 100.512C422.889 100.45 422.722 100.423 422.556 100.433C422.461 100.182 422.306 99.9551 422.103 99.7703C421.9 99.5854 421.654 99.4476 421.386 99.3676C421.117 99.2875 420.833 99.2674 420.555 99.3089C420.277 99.3503 420.012 99.4522 419.783 99.6065C419.553 99.7608 419.364 99.9634 419.231 100.198C419.097 100.433 419.023 100.694 419.014 100.961C419.005 101.228 419.061 101.493 419.178 101.736C419.294 101.978 419.469 102.192 419.687 102.36C419.562 102.374 419.438 102.4 419.318 102.437C419.274 102.268 419.187 102.112 419.063 101.984C418.939 101.856 418.783 101.76 418.609 101.704C418.436 101.649 418.25 101.635 418.07 101.666C417.889 101.697 417.72 101.77 417.578 101.88C417.415 101.697 417.211 101.55 416.981 101.45C416.751 101.351 416.501 101.3 416.248 101.304C416.049 101.304 415.852 101.336 415.664 101.398C415.63 101.262 415.567 101.133 415.48 101.021C415.392 100.908 415.282 100.813 415.154 100.742C415.027 100.671 414.886 100.626 414.74 100.608C414.593 100.59 414.445 100.6 414.303 100.638C414.161 100.676 414.028 100.741 413.913 100.829C413.799 100.917 413.704 101.026 413.635 101.15C413.565 101.273 413.523 101.409 413.511 101.548C413.499 101.688 413.516 101.828 413.563 101.961C413.32 102.12 413.122 102.332 412.985 102.579C412.848 102.827 412.777 103.102 412.777 103.381C412.777 103.387 412.778 103.392 412.778 103.397C412.519 103.36 412.254 103.387 412.01 103.476C411.976 103.34 411.913 103.211 411.826 103.099C411.738 102.986 411.628 102.891 411.5 102.82C411.373 102.749 411.232 102.704 411.086 102.686C410.939 102.668 410.791 102.678 410.649 102.716C410.507 102.754 410.374 102.819 410.259 102.907C410.145 102.995 410.05 103.104 409.981 103.227C409.912 103.351 409.87 103.487 409.857 103.626C409.845 103.765 409.862 103.906 409.909 104.039C409.557 104.265 409.299 104.601 409.181 104.988C409.063 105.376 409.092 105.79 409.263 106.159C409.434 106.529 409.736 106.83 410.117 107.01C410.497 107.19 410.933 107.238 411.347 107.145C411.413 107.506 411.599 107.838 411.877 108.093C412.156 108.347 412.512 108.511 412.896 108.56C413.279 108.61 413.669 108.542 414.009 108.367C414.349 108.192 414.622 107.919 414.787 107.588C416.103 107.75 417.439 107.693 418.734 107.419C418.855 107.747 419.077 108.033 419.372 108.239C419.667 108.446 420.021 108.563 420.387 108.575C420.754 108.588 421.116 108.495 421.425 108.309C421.735 108.124 421.979 107.854 422.124 107.535C422.39 107.53 422.652 107.468 422.89 107.355C423.057 107.634 423.303 107.864 423.6 108.018C423.897 108.172 424.233 108.245 424.571 108.227C424.91 108.21 425.236 108.104 425.514 107.92C425.791 107.736 426.009 107.483 426.143 107.188C426.55 107.115 426.97 107.18 427.332 107.37C427.694 107.56 427.974 107.864 428.123 108.23C428.368 107.913 428.682 107.65 429.044 107.46C429.407 107.27 429.809 107.157 430.222 107.129C430.589 107.226 430.98 107.209 431.336 107.08C431.692 106.951 431.995 106.717 432.2 106.413C432.086 106.835 432.143 107.282 432.36 107.665C432.578 108.049 432.94 108.341 433.375 108.482C433.81 108.624 434.284 108.605 434.705 108.429C435.125 108.254 435.461 107.934 435.644 107.535C435.91 107.53 436.172 107.468 436.41 107.355C436.577 107.634 436.823 107.864 437.119 108.018C437.416 108.172 437.753 108.245 438.091 108.227C438.429 108.21 438.755 108.104 439.033 107.92C439.311 107.736 439.529 107.483 439.663 107.188C439.929 107.183 440.191 107.122 440.429 107.009C440.558 107.226 440.735 107.413 440.948 107.559C441.16 107.705 441.404 107.805 441.662 107.852C441.92 107.9 442.185 107.893 442.44 107.833C442.695 107.774 442.933 107.662 443.138 107.506C443.201 107.837 443.366 108.144 443.611 108.388C443.856 108.631 444.171 108.802 444.517 108.878C444.863 108.954 445.225 108.932 445.558 108.816C445.891 108.699 446.181 108.492 446.392 108.221C446.611 108.381 446.866 108.49 447.137 108.542C447.408 108.594 447.688 108.586 447.955 108.52C448.222 108.454 448.47 108.331 448.679 108.16C448.889 107.989 449.054 107.775 449.163 107.535C449.369 107.554 449.576 107.532 449.772 107.47C449.968 107.409 450.148 107.308 450.3 107.176C450.453 107.044 450.574 106.883 450.656 106.704C450.738 106.524 450.78 106.331 450.778 106.135C450.775 105.939 450.73 105.746 450.644 105.568C450.558 105.391 450.433 105.232 450.278 105.103C450.123 104.974 449.941 104.877 449.743 104.819C449.546 104.761 449.338 104.743 449.133 104.767L449.133 104.767ZM416.475 104.052C416.473 104.06 416.472 104.069 416.47 104.077C416.457 104.077 416.444 104.074 416.431 104.074C416.376 104.075 416.322 104.081 416.268 104.09C416.271 104.083 416.275 104.078 416.278 104.072C416.344 104.068 416.41 104.062 416.475 104.052ZM431.741 103.476C431.736 103.456 431.727 103.437 431.72 103.417C431.999 103.234 432.219 102.981 432.355 102.686C432.595 102.685 432.833 102.636 433.052 102.542C433.271 102.448 433.466 102.311 433.626 102.141C433.612 102.207 433.604 102.275 433.604 102.343C433.606 102.448 433.624 102.553 433.66 102.653C433.346 102.861 433.108 103.156 432.98 103.497C432.583 103.351 432.144 103.343 431.741 103.476V103.476ZM442.685 103.605C442.684 103.584 442.687 103.562 442.685 103.541C442.732 103.541 442.778 103.538 442.824 103.532C442.895 103.756 443.014 103.964 443.173 104.143C443.138 104.152 443.102 104.158 443.068 104.168C443.009 103.946 442.874 103.748 442.685 103.605Z" fill="#F9A825"/>
<path d="M411.342 106.845C410.824 106.845 410.311 106.945 409.835 107.139C409.358 107.333 408.929 107.617 408.572 107.973C408.216 108.33 407.94 108.751 407.761 109.213C407.582 109.674 407.504 110.164 407.532 110.655L410.006 142.901C410.058 143.826 410.483 144.696 411.191 145.332C411.9 145.969 412.84 146.324 413.816 146.324H445.719C446.695 146.324 447.635 145.969 448.344 145.332C449.052 144.696 449.477 143.826 449.529 142.901L452.003 110.655C452.031 110.164 451.953 109.674 451.774 109.213C451.595 108.751 451.319 108.33 450.963 107.973C450.606 107.617 450.177 107.333 449.7 107.139C449.224 106.945 448.711 106.845 448.193 106.845H411.342Z" fill="#3F3D56"/>
<path d="M415.334 106.845H413.142V146.324H415.334V106.845Z" fill="#FFAC1C"/>
<path d="M421.546 106.845H419.354V146.324H421.546V106.845Z" fill="#FFAC1C"/>
<path d="M427.758 106.845H425.565V146.324H427.758V106.845Z" fill="#FFAC1C"/>
<path d="M433.97 106.845H431.777V146.324H433.97V106.845Z" fill="#FFAC1C"/>
<path d="M440.181 106.845H437.989V146.324H440.181V106.845Z" fill="#FFAC1C"/>
<path d="M446.393 106.845H444.201V146.324H446.393V106.845Z" fill="#FFAC1C"/>
<path d="M444.195 126.414L437.093 130.34C437.093 130.34 419.93 143.802 431.767 146.046C443.604 148.289 446.563 136.51 446.563 136.51L450.706 132.023L444.195 126.414Z" fill="#FFB8B8"/>
<path d="M410.461 123.609L417.563 127.535C417.563 127.535 434.726 140.997 422.889 143.241C411.053 145.485 408.093 133.705 408.093 133.705L403.951 129.218L410.461 123.609Z" fill="#FFB8B8"/>
<path d="M453.665 70.3213L461.359 70.8822C461.359 70.8822 467.277 75.9305 466.685 82.6615C466.685 82.6615 472.012 97.2455 470.828 103.416C470.828 103.416 472.012 113.512 470.236 117.439C468.461 121.365 453.665 136.51 453.665 136.51C453.665 136.51 440.053 126.413 440.644 125.852L458.4 109.025L449.522 97.8064L453.665 70.3213Z" fill="#E6E6E6"/>
<path d="M403.359 66.395L403.063 66.6755C403.063 66.6755 389.747 72.0042 390.338 78.7353C390.338 78.7353 385.012 93.3192 386.195 99.4894C386.195 99.4894 385.012 109.586 386.787 113.512C388.563 117.439 403.359 132.584 403.359 132.584C403.359 132.584 416.971 122.487 416.379 121.926L398.624 105.099L407.502 93.8802L403.359 66.395Z" fill="#E6E6E6"/>
</g>
<defs>
<clipPath id="clip0_2197_52">
<rect width="263" height="238" fill="white" transform="translate(309.82 2)"/>
</clipPath>
</defs>
</svg>
